<?xml version="1.0" encoding="UTF-8"?>
<svg width="2975px" height="632px" viewBox="0 0 2975 632" version="1.1" xmlns="http://www.w3.org/2000/svg" xmlns:xlink="http://www.w3.org/1999/xlink">
    <title>dbt-athena long</title>
    <defs>
        <linearGradient x1="49.9999749%" y1="-1.31169768e-06%" x2="49.9999749%" y2="99.9999946%" id="linearGradient-1">
            <stop stop-color="#F58534" offset="0%"></stop>
            <stop stop-color="#6E38D8" offset="100%"></stop>
        </linearGradient>
    </defs>
    <g id="Page-1" stroke="none" stroke-width="1" fill="none" fill-rule="evenodd">
        <g id="dbt-athena-long" transform="translate(0.000008, 0.000008)" fill-rule="nonzero">
            <path d="M48.7353924,3.22989171 C19.7633924,-10.8867083 -14.1675676,24.4879917 6.1942924,47.2112917 C80.3566924,129.974992 166.554992,239.321992 191.924992,324.627992 C199.469992,361.225992 189.949992,397.687992 180.202992,435.021992 C175.382992,453.483992 170.506992,472.159992 167.611992,491.169992 C158.851992,601.337992 222.121992,619.838992 239.642992,611.008992 C243.049992,610.624992 365.696992,524.808992 365.696992,524.808992 C365.696992,524.808992 287.114992,453.565992 326.262992,455.307992 L682.264992,628.769992 C711.236992,642.886992 745.167992,607.511992 724.805992,584.788992 C649.042992,500.238992 560.717992,387.944992 537.517992,301.881992 C529.360992,264.751992 539.013992,227.775992 548.901992,189.903992 C553.721992,171.440992 558.597992,152.764992 561.492992,133.754992 C570.253992,23.5871917 506.983992,5.08559171 489.462992,13.9158917 C486.055992,14.2997917 363.408992,100.115992 363.408992,100.115992 C363.408992,100.115992 465.154992,192.360992 379.417992,164.355992 L48.7353924,3.22989171 Z" id="Path" fill="url(#linearGradient-1)"></path>
            <path d="M358.794992,271.160992 C378.428992,269.658992 389.518992,273.245992 391.648992,275.306992 C389.857992,277.668992 379.441992,282.900992 359.807992,284.402992 C340.174992,285.904992 329.083992,282.318992 326.953992,280.256992 C328.745992,277.895992 339.161992,272.663992 358.794992,271.160992 Z M359.261992,306.625992 C358.512992,306.309992 357.948992,305.611992 357.881992,304.738992 C357.787992,303.510992 358.700992,302.433992 359.910992,302.340992 C360.262992,302.313992 360.590992,302.390992 360.902992,302.521992 L359.261992,306.625992 Z M387.322992,341.093992 C387.018992,341.383992 386.310992,341.952992 384.822992,342.688992 C383.498992,343.340992 381.918992,343.958992 380.115992,344.531992 C375.328992,346.051992 369.381992,347.141992 363.369992,347.601992 C350.221992,348.607992 340.841992,346.462992 338.733992,344.847992 L328.734992,290.753992 C337.946992,293.734992 351.195992,293.941992 360.483992,293.231992 C369.614992,292.532992 382.395992,290.369992 391.053992,286.163992 L389.404992,310.415992 C382.651992,308.436992 374.186992,305.461992 366.135992,302.268992 C365.136992,299.582992 362.522992,297.749992 359.576992,297.975992 C356.002992,298.248992 353.322992,301.432992 353.600992,305.065992 C353.878992,308.707992 357.011992,311.442992 360.585992,311.168992 C361.431992,311.103992 362.225992,310.865992 362.939992,310.509992 C374.195992,315.046992 382.540992,317.870992 388.784992,319.528992 L387.322992,341.093992 Z M318.153992,281.409992 L330.206992,346.605992 C331.634992,358.767992 362.708992,356.532992 364.044992,356.430992 C370.694992,355.921992 377.328992,354.694992 382.726992,352.984992 C384.937992,352.282992 386.928992,351.500992 388.639992,350.654992 C393.608992,348.196992 396.082992,345.174992 396.002992,341.677992 L397.384992,321.308992 C399.407992,321.566992 401.048992,321.622992 402.345992,321.523992 C406.426992,321.211992 407.374992,319.451992 408.028992,318.238992 C408.715992,316.960992 408.826992,315.446992 408.347992,313.969992 C407.249992,310.572992 402.028992,306.390992 398.569992,303.933992 L400.512992,275.276992 L400.473992,275.275992 C400.473992,275.057992 400.528992,274.849992 400.511992,274.628992 C399.578992,262.432992 373.423992,261.161992 358.119992,262.332992 C342.815992,263.503992 317.158992,268.738992 318.091992,280.934992 C318.103992,281.098992 318.171992,281.239992 318.192992,281.402992 L318.153992,281.409992 Z M354.383992,239.913992 C392.192992,237.020992 425.347992,265.966992 428.291992,304.438992 C431.234992,342.910992 402.869992,376.564992 365.060992,379.457992 C327.247992,382.350992 294.092992,353.403992 291.148992,314.931992 C288.205992,276.459992 316.570992,242.806992 354.383992,239.913992 Z M253.075992,343.627992 L253.751992,352.454992 L292.792992,349.467992 L292.752992,348.947992 C307.250992,374.361992 335.101992,390.628992 365.736992,388.284992 C408.325992,385.026992 440.282992,347.115992 436.966992,303.774992 C433.650992,260.434992 396.297992,227.826992 353.708992,231.085992 C320.571992,233.620992 293.963992,257.163992 285.300992,287.883992 L249.023992,290.659992 L249.698992,299.487992 L283.312992,296.915992 C282.393992,302.699992 282.051992,308.653992 282.451992,314.740992 L242.373992,317.806992 L243.049992,326.635992 L283.482992,323.541992 C284.563992,329.625992 286.388992,335.408992 288.737992,340.898992 L253.075992,343.627992 Z M497.606992,431.566992 C492.767992,437.317992 483.668992,438.044992 478.016992,433.113992 L427.781992,389.251992 C434.846992,382.988992 441.026992,375.762992 446.190992,367.815992 L496.133992,411.629992 C498.943992,414.086992 500.650992,417.516992 500.930992,421.282992 C501.214992,425.056992 500.036992,428.703992 497.606992,431.566992 Z M501.798992,404.926992 L450.737992,360.123992 C459.977992,342.874992 464.603992,322.816992 462.994992,301.783992 C458.560992,243.836992 408.624992,200.244992 351.682992,204.601992 C310.762992,207.732992 275.540992,235.192992 261.941992,274.562992 L270.152992,277.512992 C282.607992,241.453992 314.873992,216.297992 352.357992,213.429992 C404.520992,209.438992 450.256992,249.369992 454.318992,302.447992 C458.378992,355.521992 419.250992,401.949992 367.087992,405.940992 C332.240992,408.606992 298.828992,391.641992 279.880992,361.666992 L272.567992,366.443992 C293.243992,399.164992 329.723992,417.679992 367.762992,414.769992 C387.673992,413.245992 405.836992,406.043992 420.858992,394.860992 L472.364992,439.829992 C476.937992,443.820992 482.763992,445.768992 488.758992,445.309992 C494.788992,444.848992 500.282992,442.016992 504.210992,437.352992 C508.148992,432.708992 510.067992,426.772992 509.607992,420.631992 C509.151992,414.499992 506.372992,408.923992 501.798992,404.926992 Z" id="Shape" fill="#FFFFFF"></path>
            <path d="M886.397992,442.710992 C880.538992,448.700992 872.660992,454.429992 862.765992,459.897992 C852.869992,465.236992 840.629992,467.905992 826.046992,467.905992 C798.572992,467.905992 777.999992,458.595992 764.327992,439.976992 C750.785992,421.356992 744.015992,395.119992 744.015992,361.265992 C744.015992,323.114992 753.129992,294.077992 771.358992,274.155992 C789.588992,254.103992 816.866992,244.077992 853.194992,244.077992 C861.397992,244.077992 871.423992,245.379992 883.272992,247.983992 L883.272992,197.202992 L851.241992,189.194992 L851.241992,157.163992 L943.233992,154.038992 L943.233992,421.226992 L975.265992,429.233992 L975.265992,461.265992 L889.913992,463.999992 L886.397992,442.710992 Z M883.272992,297.983992 C874.679992,293.947992 864.262992,291.929992 852.022992,291.929992 C835.746992,291.929992 823.963992,297.658992 816.671992,309.116992 C809.509992,320.575992 805.929992,336.851992 805.929992,357.944992 C805.929992,378.517992 808.989992,394.012992 815.108992,404.429992 C821.358992,414.845992 831.124992,420.054992 844.405992,420.054992 C851.827992,420.054992 858.468992,418.426992 864.327992,415.171992 C870.187992,411.785992 874.809992,408.075992 878.194992,404.038992 C881.580992,400.002992 883.272992,397.723992 883.272992,397.202992 L883.272992,297.983992 Z M1075.06999,265.171992 C1082.22999,259.572992 1090.29999,254.689992 1099.28999,250.522992 C1108.26999,246.226992 1119.27999,244.077992 1132.29999,244.077992 C1158.98999,244.077992 1179.29999,253.257992 1193.22999,271.616992 C1207.29999,289.976992 1214.32999,316.082992 1214.32999,349.937992 C1214.32999,388.088992 1204.42999,417.450992 1184.63999,438.022992 C1164.97999,458.595992 1136.19999,468.882992 1098.30999,468.882992 C1085.28999,468.882992 1072.59999,468.166992 1060.22999,466.733992 C1047.98999,465.431992 1037.89999,464.129992 1029.94999,462.827992 C1022.13999,461.525992 1017.18999,460.614992 1015.10999,460.093992 L1015.10999,197.202992 L985.030992,189.194992 L985.030992,157.163992 L1075.06999,154.038992 L1075.06999,265.171992 Z M1075.06999,417.515992 C1075.06999,417.775992 1077.86999,418.426992 1083.46999,419.468992 C1089.06999,420.379992 1096.15999,420.835992 1104.75999,420.835992 C1136.52999,420.835992 1152.34999,398.569992 1152.21999,354.038992 C1152.21999,333.465992 1149.08999,317.970992 1142.83999,307.554992 C1136.58999,297.137992 1126.69999,291.929992 1113.15999,291.929992 C1105.98999,291.929992 1099.54999,293.296992 1093.81999,296.030992 C1088.21999,298.634992 1083.65999,301.564992 1080.14999,304.819992 C1076.75999,307.944992 1075.06999,309.702992 1075.06999,310.093992 L1075.06999,417.515992 Z M1332.68999,467.907513 C1311.06999,467.907513 1295.76999,461.200992 1286.78999,447.788992 C1277.92999,434.377992 1273.50999,415.106992 1273.50999,389.976992 L1273.50999,297.983992 L1236.39999,297.983992 L1236.39999,259.116992 L1273.50999,254.038992 L1273.50999,198.765992 L1333.46999,188.022992 L1333.46999,254.038992 L1389.51999,254.038992 L1389.51999,297.983992 L1333.46999,297.983992 L1333.46999,386.069992 C1333.46999,399.351992 1334.89999,408.660992 1337.76999,413.999992 C1340.75999,419.338992 1346.41999,422.007992 1354.75999,422.007992 C1359.57999,422.007992 1365.16999,420.965992 1371.54999,418.882992 C1377.92999,416.668992 1382.87999,414.650992 1386.39999,412.827992 L1400.65999,443.296992 C1378.25999,459.832992 1355.59999,468.035992 1332.68999,467.907513 Z M1540.49999,380.015992 L1426.62999,380.015992 L1426.62999,330.015992 L1540.49999,330.015992 L1540.49999,380.015992 Z M1705.53999,438.022992 C1705.53999,438.543992 1702.08999,441.473992 1695.18999,446.811992 C1688.28999,452.150992 1680.01999,457.033992 1670.37999,461.460992 C1660.74999,465.757992 1650.84999,467.905992 1640.69999,467.905992 C1621.15999,467.905992 1605.85999,462.502992 1594.79999,451.694992 C1583.85999,440.757992 1578.38999,425.262992 1578.38999,405.210992 C1578.38999,382.293992 1586.58999,365.561992 1602.99999,355.015992 C1619.40999,344.468992 1643.29999,339.194992 1674.67999,339.194992 L1702.79999,339.194992 L1702.79999,317.124992 C1702.79999,297.593992 1692.51999,287.892992 1671.94999,288.022992 C1665.82999,288.022992 1660.15999,288.478992 1654.94999,289.390992 C1649.73999,290.301992 1645.57999,291.278992 1642.44999,292.319992 C1639.45999,293.231992 1637.56999,293.817992 1636.78999,294.077992 L1630.72999,319.272992 L1594.79999,319.272992 L1592.05999,260.093992 C1594.40999,259.311992 1600.13999,257.619992 1609.24999,255.015992 C1618.48999,252.410992 1629.49999,249.937992 1642.25999,247.593992 C1655.14999,245.249992 1667.31999,244.077992 1678.77999,244.077992 C1699.34999,244.077992 1715.69999,246.681992 1727.79999,251.890992 C1739.90999,256.968992 1748.76999,265.301992 1754.36999,276.890992 C1759.96999,288.348992 1762.76999,303.778992 1762.76999,323.179992 L1762.76999,422.007992 L1792.83999,429.233992 L1792.83999,461.265992 L1712.76999,463.999992 L1705.53999,438.022992 Z M1636.39999,399.155992 C1636.39999,406.968992 1638.41999,412.957992 1642.44999,417.124992 C1646.61999,421.160992 1652.47999,423.179992 1660.02999,423.179992 C1666.40999,423.179992 1672.72999,421.486992 1678.97999,418.101992 C1685.22999,414.585992 1690.49999,411.004992 1694.79999,407.358992 C1699.08999,403.582992 1701.75999,401.108992 1702.79999,399.937992 L1702.79999,373.179992 L1679.94999,373.179992 C1664.45999,373.179992 1653.32999,375.262992 1646.54999,379.429992 C1639.77999,383.595992 1636.39999,390.171992 1636.39999,399.155992 Z M1904.94999,467.907513 C1883.33999,467.907513 1868.03999,461.200992 1859.04999,447.788992 C1850.19999,434.377992 1845.76999,415.106992 1845.76999,389.976992 L1845.76999,297.983992 L1808.65999,297.983992 L1808.65999,259.116992 L1845.76999,254.038992 L1845.76999,198.765992 L1905.72999,188.022992 L1905.72999,254.038992 L1961.78999,254.038992 L1961.78999,297.983992 L1905.72999,297.983992 L1905.72999,386.069992 C1905.72999,399.351992 1907.16999,408.660992 1910.02999,413.999992 C1913.02999,419.338992 1918.68999,422.007992 1927.01999,422.007992 C1931.83999,422.007992 1937.43999,420.965992 1943.81999,418.882992 C1950.19999,416.668992 1955.14999,414.650992 1958.65999,412.827992 L1972.91999,443.296992 C1950.52999,459.832992 1927.86999,468.035992 1904.94999,467.907513 Z M2076.82999,271.226992 C2085.02999,264.325992 2094.98999,258.075992 2106.70999,252.476992 C2118.55999,246.877992 2130.98999,244.077992 2144.01999,244.077992 C2164.32999,244.077992 2179.88999,250.392992 2190.69999,263.022992 C2201.49999,275.653992 2206.90999,293.296992 2206.90999,315.952992 L2206.90999,422.007992 L2234.83999,431.968992 L2234.83999,463.999992 L2126.04999,463.999992 L2126.04999,431.968992 L2146.74999,422.397992 L2146.74999,325.522992 C2146.74999,304.168992 2137.95999,293.556992 2120.37999,293.687992 C2113.73999,293.687992 2107.22999,295.314992 2100.84999,298.569992 C2094.46999,301.694992 2089.12999,304.950992 2084.83999,308.335992 C2080.53999,311.590992 2077.86999,313.739992 2076.82999,314.780992 L2076.82999,422.007992 L2098.11999,431.968992 L2098.11999,463.999992 L1984.83999,463.999992 L1984.83999,431.968992 L2016.86999,422.007992 L2016.86999,197.202992 L1984.83999,189.194992 L1984.83999,157.163992 L2076.82999,154.038992 L2076.82999,271.226992 Z M2321.15999,369.272992 C2322.20999,385.288992 2327.01999,397.788992 2335.61999,406.772992 C2344.33999,415.627992 2355.66999,420.054992 2369.59999,420.054992 C2379.49999,420.054992 2389.38999,418.687992 2399.28999,415.952992 C2409.31999,413.088992 2417.57999,410.223992 2424.08999,407.358992 C2430.72999,404.364992 2434.96999,402.280992 2436.78999,401.108992 L2453.97999,434.311992 C2453.97999,434.832992 2449.28999,438.153992 2439.90999,444.272992 C2430.66999,450.262992 2419.27999,455.731992 2405.72999,460.679992 C2392.31999,465.496992 2377.99999,467.905992 2362.76999,467.905992 C2328.90999,467.905992 2303.12999,458.530992 2285.41999,439.780992 C2267.70999,421.030992 2258.85999,394.468992 2258.85999,360.093992 C2258.85999,336.916992 2263.08999,316.603992 2271.54999,299.155992 C2280.14999,281.577992 2292.44999,268.035992 2308.46999,258.530992 C2324.47999,248.895992 2343.48999,244.077992 2365.49999,244.077992 C2394.79999,244.077992 2417.25999,252.476992 2432.87999,269.272992 C2448.50999,286.069992 2456.31999,308.986992 2456.31999,338.022992 C2456.31999,344.403992 2455.98999,350.588992 2455.33999,356.577992 C2454.68999,362.567992 2454.23999,366.343992 2453.97999,367.905992 L2321.15999,369.272992 Z M2361.58999,291.929992 C2350.65999,291.929992 2341.73999,295.640992 2334.83999,303.061992 C2327.92999,310.353992 2323.63999,319.989992 2321.94999,331.968992 L2394.40999,331.968992 C2394.40999,319.989992 2391.73999,310.353992 2386.39999,303.061992 C2381.05999,295.640992 2372.78999,291.929992 2361.58999,291.929992 Z M2572.13999,275.522992 C2572.13999,275.002992 2576.30999,272.007992 2584.63999,266.538992 C2593.09999,261.069992 2602.73999,256.121992 2613.54999,251.694992 C2624.34999,247.137992 2635.09999,244.858992 2645.76999,244.858992 C2664.90999,244.858992 2679.81999,251.173992 2690.49999,263.804992 C2701.17999,276.434992 2706.51999,293.817992 2706.51999,315.952992 L2706.51999,422.007992 L2734.63999,431.968992 L2734.63999,463.999992 L2624.47999,463.999992 L2624.47999,431.968992 L2646.54999,422.007992 L2646.54999,326.890992 C2646.54999,317.515992 2644.07999,309.832992 2639.12999,303.843992 C2634.17999,297.853992 2627.60999,294.858992 2619.40999,294.858992 C2611.97999,294.858992 2605.07999,296.551992 2598.69999,299.937992 C2592.44999,303.192992 2587.17999,306.838992 2582.87999,310.874992 C2578.71999,314.780992 2576.62999,316.994992 2576.62999,317.515992 L2576.62999,422.007992 L2598.50999,431.968992 L2598.50999,463.999992 L2484.63999,463.999992 L2484.63999,431.968992 L2516.66999,422.007992 L2516.66999,291.929992 L2484.63999,281.968992 L2484.63999,249.937992 L2569.40999,247.983992 L2572.13999,275.522992 Z M2887.56999,438.022992 C2887.56999,438.543992 2884.11999,441.473992 2877.21999,446.811992 C2870.31999,452.150992 2862.04999,457.033992 2852.40999,461.460992 C2842.77999,465.757992 2832.87999,467.905992 2822.72999,467.905992 C2803.19999,467.905992 2787.89999,462.502992 2776.82999,451.694992 C2765.88999,440.757992 2760.41999,425.262992 2760.41999,405.210992 C2760.41999,382.293992 2768.61999,365.561992 2785.02999,355.015992 C2801.43999,344.468992 2825.32999,339.194992 2856.70999,339.194992 L2884.83999,339.194992 L2884.83999,317.124992 C2884.83999,297.593992 2874.54999,287.892992 2853.97999,288.022992 C2847.85999,288.022992 2842.18999,288.478992 2836.97999,289.390992 C2831.77999,290.301992 2827.60999,291.278992 2824.47999,292.319992 C2821.48999,293.231992 2819.59999,293.817992 2818.81999,294.077992 L2812.76999,319.272992 L2776.82999,319.272992 L2774.08999,260.093992 C2776.43999,259.311992 2782.16999,257.619992 2791.27999,255.015992 C2800.52999,252.410992 2811.52999,249.937992 2824.28999,247.593992 C2837.17999,245.249992 2849.34999,244.077992 2860.80999,244.077992 C2881.38999,244.077992 2897.72999,246.681992 2909.83999,251.890992 C2921.94999,256.968992 2930.79999,265.301992 2936.39999,276.890992 C2941.99999,288.348992 2944.79999,303.778992 2944.79999,323.179992 L2944.79999,422.007992 L2974.87999,429.233992 L2974.87999,461.265992 L2894.79999,463.999992 L2887.56999,438.022992 Z M2818.42999,399.155992 C2818.42999,406.968992 2820.44999,412.957992 2824.47999,417.124992 C2828.64999,421.160992 2834.50999,423.179992 2842.05999,423.179992 C2848.43999,423.179992 2854.75999,421.486992 2861.00999,418.101992 C2867.25999,414.585992 2872.52999,411.004992 2876.82999,407.358992 C2881.11999,403.582992 2883.78999,401.108992 2884.83999,399.937992 L2884.83999,373.179992 L2861.97999,373.179992 C2846.48999,373.179992 2835.35999,375.262992 2828.58999,379.429992 C2821.81999,383.595992 2818.42999,390.171992 2818.42999,399.155992 Z" id="Shape" fill="#FFFFFF"></path>
        </g>
    </g>
</svg>