<?xml version="1.0" encoding="UTF-8"?>
<svg width="736px" height="736px" viewBox="0 0 736 736" version="1.1" xmlns="http://www.w3.org/2000/svg" xmlns:xlink="http://www.w3.org/1999/xlink">
    <defs>
        <linearGradient x1="49.9999767%" y1="-1.12317925e-06%" x2="49.9999767%" y2="99.9999946%" id="linearGradient-1">
            <stop stop-color="#F58534" offset="0%"></stop>
            <stop stop-color="#6E38D8" offset="100%"></stop>
        </linearGradient>
    </defs>
    <g id="Artboard" stroke="none" stroke-width="1" fill="none" fill-rule="evenodd">
        <g id="dbt-athena-square-(1)" transform="translate(2.999982, 52.000007)" fill-rule="nonzero">
            <path d="M48.735418,3.2298929 C19.763418,-10.8867071 -14.167582,24.4879929 6.19429798,47.2109929 C80.356718,129.974993 166.555018,239.321993 191.925018,324.627993 C199.470018,361.225993 189.950018,397.687993 180.203018,435.021993 C175.383018,453.483993 170.507018,472.159993 167.612018,491.169993 C158.852018,601.337993 222.122018,619.838993 239.643018,611.008993 C243.050018,610.624993 365.697018,524.808993 365.697018,524.808993 C365.697018,524.808993 287.115018,453.565993 326.263018,455.307993 L682.265018,628.769993 C711.237018,642.886993 745.168018,607.511993 724.806018,584.788993 C649.043018,500.238993 560.718018,387.944993 537.518018,301.881993 C529.361018,264.751993 539.014018,227.775993 548.902018,189.903993 C553.722018,171.440993 558.598018,152.764993 561.493018,133.754993 C570.254018,23.5871929 506.984018,5.0855929 489.463018,13.9158929 C486.056018,14.2997929 363.409018,100.115993 363.409018,100.115993 C363.409018,100.115993 465.155018,192.360993 379.418018,164.355993 L48.735418,3.2298929 Z" id="Path" fill="url(#linearGradient-1)"></path>
            <path d="M358.795018,271.160993 C378.429018,269.658993 389.519018,273.245993 391.649018,275.306993 C389.858018,277.668993 379.442018,282.900993 359.808018,284.402993 C340.175018,285.904993 329.084018,282.318993 326.954018,280.256993 C328.746018,277.895993 339.162018,272.663993 358.795018,271.160993 Z M359.262018,306.625993 C358.513018,306.309993 357.949018,305.611993 357.882018,304.738993 C357.788018,303.510993 358.701018,302.433993 359.911018,302.340993 C360.263018,302.313993 360.591018,302.390993 360.903018,302.521993 L359.262018,306.625993 Z M387.323018,341.093993 C387.019018,341.383993 386.311018,341.952993 384.823018,342.688993 C383.499018,343.340993 381.919018,343.958993 380.116018,344.531993 C375.329018,346.051993 369.382018,347.141993 363.370018,347.601993 C350.222018,348.607993 340.842018,346.462993 338.734018,344.847993 L328.735018,290.753993 C337.947018,293.734993 351.196018,293.941993 360.484018,293.231993 C369.615018,292.532993 382.396018,290.369993 391.054018,286.163993 L389.405018,310.415993 C382.652018,308.436993 374.187018,305.461993 366.136018,302.268993 C365.137018,299.582993 362.523018,297.749993 359.577018,297.975993 C356.003018,298.248993 353.323018,301.432993 353.601018,305.065993 C353.879018,308.707993 357.012018,311.442993 360.586018,311.168993 C361.432018,311.103993 362.226018,310.865993 362.940018,310.509993 C374.196018,315.046993 382.541018,317.870993 388.785018,319.528993 L387.323018,341.093993 Z M318.154018,281.409993 L330.207018,346.605993 C331.635018,358.767993 362.709018,356.532993 364.045018,356.430993 C370.695018,355.921993 377.329018,354.694993 382.727018,352.984993 C384.938018,352.283993 386.929018,351.500993 388.640018,350.654993 C393.609018,348.196993 396.083018,345.174993 396.003018,341.677993 L397.385018,321.308993 C399.408018,321.566993 401.049018,321.622993 402.346018,321.523993 C406.427018,321.211993 407.375018,319.451993 408.029018,318.238993 C408.716018,316.960993 408.827018,315.446993 408.348018,313.969993 C407.250018,310.572993 402.029018,306.390993 398.570018,303.933993 L400.513018,275.276993 L400.474018,275.275993 C400.474018,275.057993 400.529018,274.849993 400.512018,274.628993 C399.579018,262.432993 373.424018,261.161993 358.120018,262.332993 C342.816018,263.503993 317.159018,268.738993 318.092018,280.934993 C318.104018,281.098993 318.172018,281.239993 318.193018,281.402993 L318.154018,281.409993 Z M354.384018,239.913993 C392.193018,237.020993 425.348018,265.966993 428.292018,304.438993 C431.235018,342.910993 402.870018,376.564993 365.061018,379.457993 C327.248018,382.350993 294.093018,353.403993 291.149018,314.931993 C288.206018,276.459993 316.571018,242.806993 354.384018,239.913993 Z M253.076018,343.627993 L253.752018,352.454993 L292.793018,349.467993 L292.753018,348.947993 C307.251018,374.361993 335.102018,390.628993 365.737018,388.284993 C408.326018,385.026993 440.283018,347.115993 436.967018,303.774993 C433.651018,260.434993 396.298018,227.826993 353.709018,231.085993 C320.572018,233.620993 293.964018,257.163993 285.301018,287.883993 L249.024018,290.659993 L249.699018,299.487993 L283.313018,296.915993 C282.394018,302.699993 282.052018,308.653993 282.452018,314.740993 L242.374018,317.806993 L243.050018,326.635993 L283.483018,323.541993 C284.564018,329.625993 286.389018,335.408993 288.738018,340.898993 L253.076018,343.627993 Z M497.607018,431.566993 C492.768018,437.317993 483.669018,438.044993 478.017018,433.113993 L427.782018,389.251993 C434.847018,382.988993 441.027018,375.762993 446.191018,367.815993 L496.134018,411.629993 C498.944018,414.086993 500.651018,417.516993 500.931018,421.282993 C501.215018,425.056993 500.037018,428.703993 497.607018,431.566993 Z M501.799018,404.926993 L450.738018,360.123993 C459.978018,342.874993 464.604018,322.816993 462.995018,301.783993 C458.561018,243.836993 408.625018,200.244993 351.683018,204.601993 C310.763018,207.732993 275.541018,235.192993 261.942018,274.562993 L270.153018,277.512993 C282.608018,241.453993 314.874018,216.297993 352.358018,213.429993 C404.521018,209.438993 450.257018,249.369993 454.319018,302.447993 C458.379018,355.521993 419.251018,401.949993 367.088018,405.940993 C332.241018,408.606993 298.829018,391.641993 279.881018,361.666993 L272.568018,366.443993 C293.244018,399.164993 329.724018,417.679993 367.763018,414.769993 C387.674018,413.245993 405.837018,406.043993 420.859018,394.860993 L472.365018,439.829993 C476.938018,443.820993 482.764018,445.768993 488.759018,445.309993 C494.789018,444.848993 500.283018,442.016993 504.211018,437.352993 C508.149018,432.708993 510.068018,426.772993 509.608018,420.631993 C509.152018,414.499993 506.373018,408.923993 501.799018,404.926993 Z" id="Shape" fill="#FFFFFF"></path>
        </g>
    </g>
</svg>
